<svg width="81" height="81" viewBox="0 0 81 81" fill="none" xmlns="http://www.w3.org/2000/svg">
<g clip-path="url(#clip0_8_626)">
<path d="M20.25 40.5C31.4338 40.5 40.5 31.4337 40.5 20.25C40.5 31.4311 49.562 40.4957 60.7421 40.5C49.562 40.5043 40.5 49.5689 40.5 60.75C40.5 49.5662 31.4338 40.5 20.25 40.5C9.06624 40.5 1.37401e-06 49.5662 8.85155e-07 60.75L0 81L20.25 81C31.4338 81 40.5 71.9338 40.5 60.75C40.5 71.9338 49.5662 81 60.75 81L81 81L81 60.75C81 49.5689 71.9381 40.5043 60.7579 40.5C71.9381 40.4957 81 31.4311 81 20.25L81 -2.64288e-05L60.75 -2.55437e-05C49.5663 -2.50548e-05 40.5 9.06621 40.5 20.25C40.5 9.06621 31.4338 -3.18916e-05 20.25 -3.14027e-05L7.08125e-06 -3.8147e-05L4.42578e-06 20.25C2.9592e-06 31.4337 9.06624 40.5 20.25 40.5Z" fill="black"/>
</g>
<defs>
<clipPath id="clip0_8_626">
<rect width="81" height="81" fill="white"/>
</clipPath>
</defs>
</svg>
